<svg xmlns="http://www.w3.org/2000/svg" viewBox="-87 244.3 174 60"><g fill="#434345"><path d="M-31.8 271.1v12.1c0 .3-.2.5-.5.5h-1.1c-.3 0-.5-.2-.5-.5v-6.6h-3.4v6.6c0 .3-.2.5-.5.5h-1.1c-.3 0-.5-.2-.5-.5v-12.1c0-2.1 1.7-3.8 3.9-3.8 2-.1 3.7 1.7 3.7 3.8zm-2.1 0c0-.9-.8-1.7-1.7-1.7-1 0-1.7.8-1.7 1.7v3.3h3.4v-3.3zm13.3-3.3v1.1c0 .3-.2.5-.5.5h-1.5v13.8c0 .3-.2.5-.5.5h-1.1c-.3 0-.5-.3-.5-.5v-13.8h-1.5c-.3 0-.5-.2-.5-.5v-1.1c0-.3.2-.5.5-.5h5.1c.2-.1.5.2.5.5zm10.4 0v15.4c0 .3-.2.5-.5.5h-1.1c-.3 0-.5-.2-.5-.5v-6.7h-3.4v6.7c0 .3-.2.5-.5.5h-1.1c-.3 0-.5-.2-.5-.5v-15.4c0-.3.2-.5.5-.5h1.1c.3 0 .5.2.5.5v6.6h3.4v-6.6c0-.3.3-.5.5-.5h1.1c.2-.1.5.2.5.5zm5.2 15.4c0 .3-.2.5-.5.5h-1.1c-.3 0-.5-.2-.5-.5v-15.4c0-.3.2-.5.5-.5h1.1c.3 0 .5.2.5.5v15.4zM5.8 271v12.1c0 .3-.2.5-.5.5H4.2c-.3 0-.5-.3-.5-.5V271c0-.9-.8-1.7-1.7-1.7-1 0-1.7.8-1.7 1.7v12.1c0 .3-.2.5-.5.5h-1.1c-.3 0-.5-.3-.5-.5V271c0-2.1 1.7-3.8 3.9-3.8 1.9 0 3.7 1.8 3.7 3.8zm10.7 1.6c0 1.1-.5 2.1-1.2 2.8.7.7 1.2 1.7 1.2 2.8v5c0 .3-.2.5-.5.5h-1.1c-.3 0-.5-.3-.5-.5v-5c0-.9-.8-1.7-1.7-1.7H11v6.7c0 .3-.2.5-.5.5H9.4c-.3 0-.5-.3-.5-.5v-15.4c0-.3.2-.5.5-.5h1.1c.3 0 .5.2.5.5v6.6h1.7c1 0 1.7-.8 1.7-1.7v-4.9c0-.3.2-.5.5-.5H16c.3 0 .5.2.5.5v4.8zm5.3 10.6c0 .3-.2.5-.5.5h-1.1c-.3 0-.5-.2-.5-.5v-15.4c0-.3.2-.5.5-.5h1.1c.3 0 .5.2.5.5v15.4zM32.5 271v12.1c0 .3-.2.5-.5.5h-1.1c-.3 0-.5-.3-.5-.5V271c0-.9-.8-1.7-1.7-1.7-1 0-1.7.8-1.7 1.7v12.1c0 .3-.2.5-.5.5h-1.1c-.3 0-.5-.3-.5-.5V271c0-2.1 1.7-3.8 3.9-3.8 2 0 3.7 1.8 3.7 3.8zm8.6 1.2v-1.1c0-1-.8-1.7-1.7-1.7-.9 0-1.7.7-1.7 1.7v8.8c0 .9.8 1.7 1.7 1.7.9 0 1.7-.8 1.7-1.7v-3.4H40c-.3 0-.5-.2-.5-.5v-1.1c0-.3.2-.5.5-.5h2.8c.3 0 .5.2.5.5v5c0 2.1-1.7 3.8-3.8 3.8-2.1 0-3.8-1.7-3.8-3.8v-8.8c0-2.1 1.7-3.8 3.8-3.8 2.1 0 3.8 1.7 3.8 3.8v1.1c0 .3-.2.5-.5.5h-1.1c-.3 0-.6-.2-.6-.5zm15.8-1.1v12.1c0 .3-.2.5-.5.5h-1.1c-.3 0-.5-.2-.5-.5v-6.6h-3.4v6.6c0 .3-.2.5-.5.5h-1.1c-.3 0-.5-.2-.5-.5v-12.1c0-2.1 1.7-3.8 3.9-3.8 2-.1 3.7 1.7 3.7 3.8zm-2.1 0c0-.9-.8-1.7-1.7-1.7-1 0-1.7.8-1.7 1.7v3.3h3.4v-3.3zm12.9-.1v1.6c0 2.1-1.7 3.9-3.8 3.9h-1.7v6.7c0 .3-.2.5-.5.5h-1.1c-.3 0-.5-.3-.5-.5v-15.4c0-.3.3-.5.5-.5h3.3c2.1-.1 3.8 1.7 3.8 3.7zm-2.1 0c0-.9-.8-1.7-1.7-1.7h-1.7v5h1.7c.9 0 1.7-.8 1.7-1.7V271zm6.6-1.6v5h2.9c.3 0 .5.2.5.5v1.1c0 .3-.2.5-.5.5h-2.9v5.1h2.9c.3 0 .5.2.5.5v1.1c0 .3-.2.5-.5.5h-4c-.6 0-1.1-.5-1.1-1.1v-14.3c0-.6.5-1.1 1.1-1.1h4c.3 0 .5.2.5.5v1.1c0 .3-.2.5-.5.5h-2.9zm-122.4-8.9h-20.9c-2.5 0-4.5 2-4.5 4.5v20.9c0 2.5 2 4.5 4.5 4.5h20.9c2.5 0 4.5-2 4.5-4.5V265c0-2.5-2-4.5-4.5-4.5zm-11.7 19.2c-1.2 0-1.5-.7-2-.8 0 0 2.2-1.1 3.5.1-.1 0-.7.7-1.5.7zm12.9 5.8c-.1 1.1-1.3 1.6-2.4.9-1.5-1.1-4.4-1-4.9-.9-3.8.2-4.6-2.2-4.2-3.3.4-1.1 2-1.7 3.1-1.5 1.1.2.9.3 2.2.3 1.3 0 2-.8 3.8-.4 0-.5 0-1.5-.6-2.3-1.2-1.5-4.2-.8-6-1.3-.7-.2-1.8-.8-2.4-.9-.8-.1-2-.4-3.2.2.3-.9-.5-1.6-.4-1.7.3 0 2.9-1.3 3.2-1.8.9-1.7-1.8-4.1-4.8-4-.5 0-1.8.1-2.1.6 0 .2 1.3-.1.7.3-.3.2-4 2.9-3.7 5.2.1.5.2 1.4-.1 2.6-1.3 3.9-.8 5.5-1.2 5.3-.8-2.1-.2-3.7.2-5.3.2-.8 0-1.5-.1-2.3-.1-1.4-.1-2.8.9-4 .8-1 1.5-2 2.3-3 1.1-1.2 5.7-2.8 9.5 0 .4.3 1.5 1.3 1.6 1.2.1-.1.3-.8.4-.4.2 1.4 1.4 1.4 2.1 2.4.4.6 1 3 3.8 5.6 1.4 1.3 1.1 3.3 1.3 4.5.1.7.3 1.1.5 1.6.4.8.5 1 .5 2.4zm-8-6.6s2.2-1.1 3.5.1c0 0-.7.7-1.5.7-1.2.1-1.5-.7-2-.8z"/><path d="M-57.9 282c.3 0 2.3.4 2.2 1.6-.1 1.2-.8.7-1.3.3-.6-.4-2.2-.8-2.2-.8s-.8-.2-.3-.6c.4-.4 1.2-.5 1.6-.5zm5 0c-.3 0-2.3.4-2.2 1.6.1 1.2.8.7 1.3.3.6-.4 2.2-.8 2.2-.8s.8-.2.3-.6c-.5-.4-1.3-.5-1.6-.5z"/></g></svg>