<svg xmlns="http://www.w3.org/2000/svg" viewBox="0 0 184.4 47.1"><path d="M4.9 10.8h4c3.6 0 5.2 1.2 5.2 3.5 0 2-1.6 3.4-4.9 3.4H4.9v-6.9zM0 33.9h9.8c5.1 0 10.3-1.8 10.3-7.8 0-3.5-2.5-6.2-5.9-6.6v-.1c2.8-.8 4.7-2.9 4.7-6 0-5-4.2-6.9-8.4-6.9H0v27.4zm4.9-12h4.7c3.9 0 5.8 1 5.8 3.9 0 3.6-3.5 4-6 4H4.9v-7.9zM23.3 6H28v27.9h-4.6L23.3 6zm12.4 18.6c0-2.9 2-5.5 5.4-5.5 3.4 0 5.4 2.7 5.4 5.5 0 2.9-2 5.5-5.4 5.5-3.4 0-5.4-2.6-5.4-5.5zm-4.7 0c0 5.8 4.5 9.7 10 9.7s10-3.9 10-9.7-4.5-9.7-10-9.7-10 3.9-10 9.7zm26.9 0c0-2.9 2-5.5 5.4-5.5 3.4 0 5.4 2.7 5.4 5.5 0 2.9-2 5.5-5.4 5.5-3.4.1-5.4-2.6-5.4-5.5zm-4.7 0c0 5.8 4.5 9.7 10 9.7s10-3.9 10-9.7-4.5-9.7-10-9.7-10 3.9-10 9.7zm23-9.2h4.4v2.9h.1c.8-1.7 2.6-3.3 5.6-3.3 2.8 0 4.8 1.1 5.8 3.4 1.3-2.3 3.3-3.4 6.1-3.4 4.9 0 6.6 3.5 6.6 7.9v11h-4.6V23.4c0-2.3-.7-4.3-3.4-4.3-2.9 0-4 2.4-4 4.8v10h-4.6v-11c0-2.3-.9-3.8-3.2-3.8-3.1 0-4.2 2.2-4.2 4.7v10.1h-4.6V15.4zm47.7 9.2c0 2.9-2 5.5-5.4 5.5-3.4 0-5.4-2.7-5.4-5.5 0-2.9 2-5.5 5.4-5.5 3.4 0 5.4 2.6 5.4 5.5zm-15.3 9.3h4.4v-2.8h.1c1.3 2.2 3.8 3.2 6.4 3.2 5.7 0 9.2-4.2 9.2-9.7s-3.6-9.7-8.9-9.7c-3.5 0-5.3 1.6-6.3 2.8h-.1V6h-4.6l-.2 27.9zm26.7-11.2c.3-2.7 2-4.4 4.8-4.4 2.9 0 4.7 1.7 4.7 4.4h-9.5zm14.1 3.5v-1.3c0-6.4-3.5-10-8.6-10-5.6 0-10 3.9-10 9.7s4.5 9.7 10 9.7c3 0 5.6-1.1 7.8-3.7l-3.3-2.5c-1.2 1.5-2.7 2.5-5 2.5-2.6 0-4.7-1.7-5-4.4h14.1zm3-10.8h4.6v3h.1c1-2.1 3.1-3.4 5.5-3.4.6 0 1.1.1 1.7.3v4.5c-.8-.2-1.5-.3-2.2-.3-4.4 0-5 3.6-5 4.7v9.9h-4.6V15.4zm22.1 3.7c3.3 0 5.5 2.2 5.5 5.4 0 3.1-2.1 5.4-5.5 5.4-3.1 0-5.4-2.4-5.4-5.4 0-3.2 2.2-5.4 5.4-5.4zm5.6-3.7v2.8h-.1c-1.3-2.2-3.8-3.2-6.4-3.2-5.7 0-9.2 4.2-9.2 9.7 0 5.2 3.6 9.5 9.2 9.5 2.3 0 4.7-.9 6.1-2.7h.1v1.3c0 3.6-1.4 6.2-5.9 6.2-2.6 0-4.5-.9-6.4-2.7l-2.8 3.8c2.6 2.3 5.7 3.1 9.2 3.1 7.2 0 10.4-4.2 10.4-10.9V15.5h-4.4v-.1z" fill="#010101"/></svg>