<svg xmlns="http://www.w3.org/2000/svg" viewBox="0 0 190 21.426666" height="21.427" width="190"><path d="M69.19 8.476c-.389.195-1.168.39-2.165.39-2.312 0-4.052-1.46-4.052-4.15 0-2.566 1.74-4.306 4.283-4.306 1.021 0 1.666.219 1.947.365l-.256.863c-.401-.194-.974-.34-1.655-.34-1.922 0-3.2 1.23-3.2 3.382 0 2.008 1.156 3.298 3.151 3.298.645 0 1.303-.135 1.728-.341l.22.84m1.692-2.665c0 1.29.742 2.263 1.788 2.263 1.022 0 1.788-.961 1.788-2.287 0-.998-.498-2.263-1.763-2.263-1.266 0-1.813 1.167-1.813 2.287zm4.672-.06c0 2.177-1.509 3.126-2.932 3.126-1.594 0-2.823-1.168-2.823-3.03 0-1.97 1.29-3.127 2.92-3.127 1.691 0 2.835 1.23 2.835 3.03m1.23-1.301c0-.61-.012-1.108-.049-1.595h.937l.049.95h.036c.329-.56.877-1.084 1.85-1.084.803 0 1.41.487 1.667 1.18h.024a2.44 2.44 0 0 1 .657-.766c.352-.268.742-.414 1.302-.414.778 0 1.934.512 1.934 2.555v3.468h-1.046V5.41c0-1.132-.414-1.814-1.277-1.814-.609 0-1.083.451-1.266.973a1.787 1.787 0 0 0-.085.536v3.638h-1.047V5.216c0-.937-.413-1.619-1.228-1.619-.67 0-1.156.535-1.326 1.071-.06.159-.086.34-.086.523v3.553h-1.046V4.449m10.028.001c0-.61-.012-1.108-.05-1.595h.938l.048.95h.037c.329-.56.876-1.084 1.85-1.084.802 0 1.41.487 1.666 1.18h.024a2.44 2.44 0 0 1 .657-.766c.353-.268.742-.414 1.302-.414.779 0 1.934.512 1.934 2.555v3.468h-1.046V5.41c0-1.132-.413-1.814-1.277-1.814-.609 0-1.083.451-1.266.973a1.788 1.788 0 0 0-.084.536v3.638h-1.048V5.216c0-.937-.413-1.619-1.228-1.619-.669 0-1.155.535-1.326 1.071-.06.159-.085.34-.085.523v3.553h-1.046V4.449m14.955 2.689c0 .608.011 1.143.048 1.606h-.949l-.06-.961h-.025c-.28.474-.9 1.095-1.947 1.095-.924 0-2.032-.511-2.032-2.58V2.856h1.072v3.261c0 1.12.34 1.873 1.313 1.873.718 0 1.217-.498 1.411-.973.06-.158.098-.353.098-.548V2.855h1.07v4.283m1.656-2.688c0-.61-.012-1.108-.048-1.595h.948l.061.973h.025c.292-.559.973-1.107 1.947-1.107.814 0 2.08.487 2.08 2.507v3.516h-1.07V5.349c0-.948-.353-1.74-1.363-1.74-.706 0-1.254.5-1.436 1.096a1.528 1.528 0 0 0-.073.498v3.54h-1.07V4.45m6.631 4.294V2.855h1.071v5.889zm1.193-7.543c.012.364-.256.657-.682.657a.637.637 0 0 1-.644-.657c0-.378.28-.67.669-.67.401 0 .657.292.657.67m5.732 7.324c-.28.146-.9.34-1.691.34-1.777 0-2.933-1.204-2.933-3.004 0-1.813 1.24-3.128 3.163-3.128.634 0 1.192.159 1.485.305l-.244.827c-.255-.146-.656-.28-1.24-.28-1.35 0-2.08.998-2.08 2.227 0 1.362.875 2.202 2.043 2.202.608 0 1.01-.158 1.314-.293l.182.804m4.236-2.786c-1.168-.024-2.494.182-2.494 1.326 0 .693.462 1.022 1.01 1.022.766 0 1.252-.487 1.423-.986.036-.11.06-.231.06-.34zm.157 3.005l-.085-.742h-.035c-.33.462-.962.876-1.801.876-1.193 0-1.802-.84-1.802-1.691 0-1.424 1.266-2.202 3.541-2.19v-.122c0-.487-.133-1.363-1.338-1.363-.547 0-1.12.17-1.533.438l-.244-.706c.488-.316 1.193-.523 1.935-.523 1.8 0 2.238 1.23 2.238 2.41v2.201c0 .511.025 1.01.098 1.412h-.974m3.725-7.58v1.691h1.533v.815h-1.533v3.176c0 .73.207 1.143.802 1.143.28 0 .487-.036.622-.073l.048.804c-.206.084-.535.146-.949.146-.5 0-.9-.159-1.156-.45-.304-.317-.413-.84-.413-1.534V3.67h-.913v-.815h.913v-1.41l1.046-.28m2.617 7.579V2.855h1.07v5.889zm1.192-7.543c.012.364-.255.657-.681.657a.637.637 0 0 1-.645-.657c0-.378.28-.67.668-.67.403 0 .658.292.658.67m2.19 4.611c0 1.29.743 2.263 1.789 2.263 1.022 0 1.788-.961 1.788-2.287 0-.998-.498-2.263-1.764-2.263-1.265 0-1.813 1.167-1.813 2.287zm4.672-.06c0 2.177-1.508 3.126-2.932 3.126-1.593 0-2.822-1.168-2.822-3.03 0-1.97 1.29-3.127 2.92-3.127 1.691 0 2.834 1.23 2.834 3.03m1.231-1.301c0-.61-.012-1.108-.05-1.595h.95l.061.973h.024c.292-.559.973-1.107 1.947-1.107.816 0 2.08.487 2.08 2.507v3.516h-1.07V5.349c0-.948-.353-1.74-1.362-1.74-.707 0-1.254.5-1.436 1.096-.05.133-.074.316-.074.498v3.54H137V4.45m6.485 3.199a2.8 2.8 0 0 0 1.411.426c.779 0 1.144-.39 1.144-.876 0-.511-.304-.791-1.096-1.083-1.057-.377-1.556-.961-1.556-1.667 0-.949.767-1.728 2.03-1.728.598 0 1.12.17 1.449.365l-.267.779a2.298 2.298 0 0 0-1.205-.34c-.632 0-.986.365-.986.802 0 .487.354.706 1.119.998 1.023.39 1.547.9 1.547 1.776 0 1.035-.804 1.765-2.203 1.765-.645 0-1.241-.159-1.655-.402l.268-.815m7.192-.195a3.75 3.75 0 0 0 1.898.535c1.082 0 1.716-.571 1.716-1.399 0-.766-.439-1.205-1.546-1.63-1.338-.475-2.165-1.168-2.165-2.323 0-1.278 1.059-2.227 2.652-2.227.84 0 1.448.194 1.813.402l-.293.864a3.25 3.25 0 0 0-1.557-.39c-1.119 0-1.544.669-1.544 1.229 0 .766.498 1.143 1.629 1.581 1.388.536 2.093 1.205 2.093 2.41 0 1.264-.937 2.36-2.872 2.36-.79 0-1.653-.232-2.092-.524l.268-.888m9.795-2.226c.012-.682-.28-1.74-1.484-1.74-1.083 0-1.557.997-1.643 1.74zm-3.139.766c.024 1.448.95 2.044 2.02 2.044.766 0 1.228-.133 1.63-.304l.182.766c-.377.17-1.021.366-1.958.366-1.814 0-2.896-1.192-2.896-2.97 0-1.775 1.046-3.175 2.762-3.175 1.923 0 2.434 1.692 2.434 2.774 0 .22-.026.39-.036.5h-4.138m9.577 2.53c-.28.146-.9.34-1.691.34-1.776 0-2.932-1.204-2.932-3.004 0-1.813 1.241-3.128 3.162-3.128.634 0 1.192.159 1.486.305l-.244.827c-.255-.146-.658-.28-1.242-.28-1.349 0-2.08.998-2.08 2.227 0 1.362.876 2.202 2.044 2.202a3.03 3.03 0 0 0 1.314-.293l.182.804m6.061-1.387c0 .608.011 1.143.049 1.606h-.95l-.061-.961h-.024c-.28.474-.9 1.095-1.947 1.095-.924 0-2.032-.511-2.032-2.58V2.856h1.072v3.261c0 1.12.34 1.873 1.314 1.873.717 0 1.217-.498 1.412-.973.06-.158.096-.353.096-.548V2.855h1.072v4.283m1.656-2.446c0-.693-.012-1.29-.05-1.837h.938l.036 1.157h.049c.267-.792.912-1.29 1.63-1.29.122 0 .207.011.303.036v1.01a1.59 1.59 0 0 0-.364-.037c-.754 0-1.289.572-1.436 1.375a3.056 3.056 0 0 0-.048.5v3.138h-1.058V4.692m3.905 4.052V2.855h1.072v5.889zm1.193-7.543c.012.364-.256.657-.681.657a.637.637 0 0 1-.645-.657c0-.378.28-.67.669-.67.401 0 .657.292.657.67m2.823-.037v1.691h1.533v.815h-1.533v3.176c0 .73.207 1.143.803 1.143.28 0 .486-.036.621-.073l.048.804c-.207.084-.535.146-.948.146-.5 0-.901-.159-1.156-.45-.305-.317-.415-.84-.415-1.534V3.67h-.912v-.815h.912v-1.41l1.047-.28m3.116 1.69l1.29 3.48c.133.389.28.852.377 1.204h.024c.109-.352.23-.802.377-1.229l1.168-3.455h1.13l-1.605 4.197c-.766 2.02-1.289 3.054-2.02 3.687-.522.463-1.045.645-1.313.693l-.268-.9c.268-.085.62-.255.937-.523.292-.231.656-.645.9-1.192.048-.11.086-.195.086-.255a.914.914 0 0 0-.074-.28l-2.177-5.427h1.168M67.706 17.447h-3.188v2.957h3.553v.887h-4.612v-8.199h4.429v.888h-3.37v2.591h3.188v.876m1.437 2.75a2.8 2.8 0 0 0 1.411.426c.779 0 1.143-.39 1.143-.876 0-.511-.304-.791-1.095-1.083-1.058-.377-1.557-.961-1.557-1.667 0-.948.767-1.727 2.032-1.727.596 0 1.12.17 1.448.364l-.268.78a2.293 2.293 0 0 0-1.204-.342c-.633 0-.986.366-.986.803 0 .487.353.706 1.12.999 1.021.389 1.545.9 1.545 1.776 0 1.034-.803 1.764-2.203 1.764-.644 0-1.24-.16-1.654-.402l.268-.815m6.132-6.484v1.69h1.533v.815h-1.533v3.176c0 .73.207 1.143.803 1.143.28 0 .487-.036.62-.073l.05.804c-.207.085-.535.146-.95.146-.499 0-.9-.16-1.155-.45-.304-.316-.414-.84-.414-1.534v-3.212h-.913v-.815h.913v-1.41l1.046-.28m5.72 4.574c-1.168-.024-2.494.182-2.494 1.326 0 .693.462 1.022 1.01 1.022.766 0 1.252-.487 1.423-.985.036-.11.06-.232.06-.341zm.158 3.004l-.085-.741h-.037c-.328.462-.961.877-1.8.877-1.194 0-1.801-.841-1.801-1.693 0-1.422 1.265-2.201 3.54-2.19v-.121c0-.486-.134-1.363-1.339-1.363-.546 0-1.118.17-1.532.438l-.243-.706c.486-.316 1.192-.522 1.934-.522 1.8 0 2.239 1.228 2.239 2.409v2.201c0 .512.024 1.01.096 1.411h-.972m3.542-2.359c0 .133.024.268.048.39.207.742.827 1.252 1.606 1.252 1.12 0 1.789-.912 1.789-2.262 0-1.181-.609-2.19-1.752-2.19-.73 0-1.411.498-1.63 1.313-.025.122-.061.268-.061.439zm-1.108 2.36c.025-.402.049-.998.049-1.521v-7.117h1.059v3.699h.024c.377-.658 1.058-1.083 2.008-1.083 1.459 0 2.494 1.216 2.481 3.005 0 2.104-1.326 3.152-2.64 3.152-.851 0-1.533-.33-1.97-1.108h-.038l-.047.972h-.926m6.853-8.637h1.07v8.637h-1.07v-8.637m2.75 8.637v-5.888h1.07v5.888zm1.191-7.542c.012.365-.256.657-.681.657a.637.637 0 0 1-.645-.657c0-.378.28-.67.669-.67.401 0 .657.292.657.67m1.389 6.448c.316.207.875.426 1.41.426.78 0 1.145-.39 1.145-.876 0-.511-.305-.791-1.096-1.083-1.058-.377-1.557-.961-1.557-1.667 0-.948.767-1.727 2.032-1.727.596 0 1.119.17 1.448.364l-.268.78a2.295 2.295 0 0 0-1.204-.342c-.633 0-.986.366-.986.803 0 .487.353.706 1.12.999 1.021.389 1.545.9 1.545 1.776 0 1.034-.804 1.764-2.203 1.764-.644 0-1.24-.16-1.654-.402l.267-.815m4.844-7.543h1.07v3.674h.025c.17-.304.438-.572.766-.754a2.21 2.21 0 0 1 1.095-.304c.79 0 2.056.486 2.056 2.518v3.503h-1.07V17.91c0-.948-.353-1.751-1.363-1.751-.694 0-1.24.486-1.435 1.07-.062.147-.073.305-.073.511v3.552h-1.071v-8.637m6.632 4.342c0-.608-.012-1.107-.05-1.594h.938l.049.95h.036c.329-.56.876-1.083 1.85-1.083.802 0 1.41.486 1.666 1.18h.024a2.44 2.44 0 0 1 .657-.767c.353-.267.743-.413 1.303-.413.778 0 1.934.51 1.934 2.555v3.466h-1.046v-3.333c0-1.13-.414-1.813-1.278-1.813-.608 0-1.083.45-1.265.974a1.75 1.75 0 0 0-.085.535v3.637h-1.047v-3.527c0-.937-.413-1.619-1.228-1.619-.67 0-1.156.535-1.327 1.071-.06.159-.085.34-.085.523v3.552h-1.046v-4.294m13.762.779c.012-.681-.28-1.74-1.484-1.74-1.083 0-1.557.997-1.642 1.74zm-3.138.766c.024 1.448.949 2.044 2.019 2.044.766 0 1.229-.133 1.63-.304l.183.767c-.378.17-1.022.365-1.959.365-1.813 0-2.896-1.193-2.896-2.97 0-1.775 1.047-3.174 2.762-3.174 1.923 0 2.434 1.69 2.434 2.773 0 .22-.025.39-.037.5h-4.136m5.378-1.546c0-.608-.011-1.107-.049-1.594h.95l.06.974h.025c.292-.56.973-1.107 1.947-1.107.815 0 2.08.486 2.08 2.506v3.515h-1.07v-3.394c0-.948-.354-1.74-1.363-1.74-.706 0-1.254.5-1.436 1.096a1.526 1.526 0 0 0-.073.499v3.54h-1.07v-4.295m7.872-3.284v1.69h1.534v.815h-1.534v3.176c0 .73.208 1.143.803 1.143.28 0 .487-.036.621-.073l.048.804c-.206.085-.535.146-.948.146-.5 0-.9-.16-1.157-.45-.303-.316-.412-.84-.412-1.534v-3.212h-.914v-.815h.914v-1.41l1.045-.28m10.843 7.312c-.39.193-1.168.389-2.166.389-2.312 0-4.052-1.46-4.052-4.15 0-2.567 1.74-4.306 4.283-4.306 1.021 0 1.667.219 1.947.365l-.256.864c-.402-.195-.974-.341-1.655-.341-1.923 0-3.2 1.23-3.2 3.382 0 2.008 1.156 3.298 3.152 3.298.644 0 1.301-.134 1.728-.342l.219.84m4.187-2.737c-1.169-.024-2.494.182-2.494 1.326 0 .693.461 1.022 1.01 1.022.766 0 1.251-.487 1.422-.985a1.11 1.11 0 0 0 .061-.341zm.157 3.004l-.084-.741h-.036c-.33.462-.963.877-1.802.877-1.192 0-1.801-.841-1.801-1.693 0-1.422 1.267-2.201 3.541-2.19v-.121c0-.486-.133-1.363-1.338-1.363-.547 0-1.12.17-1.534.438l-.242-.706c.486-.316 1.192-.522 1.933-.522 1.801 0 2.24 1.228 2.24 2.409v2.201c0 .512.024 1.01.096 1.411h-.973m2.483-4.294c0-.608-.011-1.107-.047-1.594h.949l.06.974h.025c.291-.56.974-1.107 1.946-1.107.816 0 2.081.486 2.081 2.506v3.515h-1.07v-3.394c0-.948-.354-1.74-1.363-1.74-.706 0-1.254.5-1.436 1.096a1.557 1.557 0 0 0-.074.499v3.54h-1.07v-4.295m9.736 1.29c-1.168-.024-2.495.182-2.495 1.326 0 .693.463 1.022 1.01 1.022.766 0 1.253-.487 1.423-.985.036-.11.062-.232.062-.341zm.157 3.004l-.085-.741h-.036c-.33.462-.962.877-1.802.877-1.192 0-1.8-.841-1.8-1.693 0-1.422 1.266-2.201 3.54-2.19v-.121c0-.486-.133-1.363-1.338-1.363-.547 0-1.119.17-1.532.438l-.244-.706c.486-.316 1.193-.522 1.934-.522 1.8 0 2.239 1.228 2.239 2.409v2.201c0 .512.024 1.01.097 1.411h-.973m6.499-3.491c0-.134-.014-.316-.05-.45-.158-.681-.742-1.241-1.545-1.241-1.107 0-1.764.973-1.764 2.275 0 1.192.584 2.178 1.74 2.178.717 0 1.375-.474 1.57-1.277.035-.147.049-.293.049-.463zm1.07-5.146v7.117c0 .523.012 1.12.048 1.52h-.961l-.048-1.021h-.024c-.33.657-1.047 1.157-2.008 1.157-1.424 0-2.519-1.206-2.519-2.995-.012-1.958 1.204-3.162 2.64-3.162.9 0 1.51.425 1.778.9h.024v-3.516h1.07m4.759 5.633c-1.168-.024-2.493.182-2.493 1.326 0 .693.461 1.022 1.009 1.022.767 0 1.252-.487 1.423-.985a1.11 1.11 0 0 0 .061-.341zm.157 3.004l-.084-.741h-.036c-.329.462-.962.877-1.801.877-1.192 0-1.801-.841-1.801-1.693 0-1.422 1.266-2.201 3.541-2.19v-.121c0-.486-.133-1.363-1.339-1.363-.546 0-1.12.17-1.533.438l-.243-.706c.487-.316 1.192-.522 1.934-.522 1.801 0 2.24 1.228 2.24 2.409v2.201c0 .512.024 1.01.096 1.411h-.974" fill="#231f20"/><path d="M0 21.28V-.005h10.454v21.287H0m33.649-.002V-.005h10.454v21.287H33.65M20.603 4.415l1.493-3.04 1.483 2.931c.185.31.333.286.63.136l1.276-.632-.833 4.095c-.17.8.285 1.037.78.492l1.815-1.942.481 1.101c.167.332.408.285.73.222l1.876-.396-.623 2.372-.019.05c-.073.31-.22.573.121.714l.676.335-3.868 3.276c-.4.407-.264.534-.109.987l.357 1.102-3.61-.655c-.446-.11-.751-.11-.766.246l.15 4.14h-1.089l.143-4.12c0-.417-.305-.403-1.035-.254l-3.332.643.427-1.102c.152-.42.189-.705-.147-.987l-3.952-3.226.727-.443c.207-.161.225-.333.108-.693l-.735-2.406 1.9.407c.535.12.68 0 .815-.297l.53-1.09 1.88 2.128c.335.395.803.133.658-.436l-.908-4.43 1.402.8c.222.137.458.172.587-.086l-.019.058" fill="#ee293d"/></svg>