<svg xmlns="http://www.w3.org/2000/svg" id="Layer_1" viewBox="0 0 151.4 50" width="151.4" height="50"><style id="style2">.st0{fill:#233b57}.st1{fill:#00d4c2}.st2{fill:none}</style><g id="g18" transform="translate(-42.2 -47)"><g id="g14"><g id="g8"><g id="g6"><path class="st0" d="M61 47.1H42.2V97H61c15.7 0 25.2-9.7 25.2-24.9 0-15.3-9.5-25-25.2-25zm-.6 38.5H55V58.3h5.4c8.3 0 12.9 5.3 12.9 13.7 0 8.4-4.6 13.6-12.9 13.6zM131.3 64c0-10.9-7.4-17-18.1-17H90.7v49.9h12.9V80.4h4.6l10.4 16.5H133L121.3 79c6.1-2.2 10-7.4 10-15zm-19.5 6.1h-8.1V58h8.1c4.6 0 6.7 2.4 6.7 6 0 3.7-2.1 6.1-6.7 6.1zm55.5-23h-12.5l13.1 49.8h12.5zm-34.8 0l13.1 49.8h12.5L145 47.1z" id="path4" fill="#233b57"/></g></g><g id="g12"><path class="st1" id="polygon10" fill="#00d4c2" d="M178.5 47.1l7.5 28.4 7.6-28.4z"/></g></g><path class="st2" id="rect16" fill="none" d="M42.2 47.1h151.4V97H42.2z"/></g></svg>