<svg xmlns="http://www.w3.org/2000/svg" viewBox="0 0 1155.0133 386.53333" height="386.533" width="1155.013"><g fill="#a82736"><path d="M919.576 169.219c0-7.051 7.317-10.586 21.959-10.586h37.145c13.865 0 20.799 3.604 20.799 10.8v13.182h-79.903zm102.361 57.72h-64.22c-12.656 0-22.014-1.615-28.058-4.828-6.074-3.204-9.091-7.663-9.091-13.376h104.008V166.34c0-5.564-1.065-10.594-3.21-15.092-2.155-4.486-5.114-8.276-8.914-11.342-3.801-3.07-8.35-5.468-13.621-7.179-5.288-1.707-11.011-2.559-17.178-2.559h-37.142c-7.595 0-14.475.924-20.642 2.775-6.172 1.859-11.445 4.536-15.846 8.025-4.406 3.507-7.82 7.784-10.234 12.851-2.432 5.07-3.645 10.743-3.645 17.027v44.31c0 5.427 1.167 10.6 3.47 15.531 2.315 4.921 5.786 9.239 10.409 12.945 4.624 3.712 10.393 6.676 17.336 8.886 6.929 2.221 15.017 3.328 24.265 3.328h45.78l26.533-28.908m-591.542-57.719c0-7.051 7.316-10.586 21.96-10.586h37.14c13.876 0 20.804 3.604 20.804 10.8v13.182h-79.904zm102.357 57.72h-64.215c-12.66 0-22.017-1.615-28.078-4.828-6.059-3.204-9.079-7.663-9.079-13.376h104.013V166.34c0-5.564-1.07-10.594-3.218-15.092-2.14-4.486-5.116-8.276-8.916-11.342-3.798-3.07-8.339-5.468-13.619-7.179-5.29-1.707-11.008-2.559-17.168-2.559h-37.15c-7.591 0-14.482.924-20.638 2.775-6.167 1.859-11.444 4.536-15.845 8.025-4.407 3.507-7.818 7.784-10.244 12.851-2.423 5.07-3.631 10.743-3.631 17.027v44.31c0 5.427 1.155 10.6 3.461 15.531 2.324 4.921 5.794 9.239 10.414 12.945 4.612 3.712 10.397 6.676 17.334 8.886 6.928 2.221 15.02 3.328 24.26 3.328h72.276l.043-28.908m-139.677-67.653h-74.126c-13.648 0-20.473 1.831-20.473 5.5v6.134c0 1.274.335 2.366.993 3.281.659.916 1.815 1.624 3.472 2.119 1.662.49 3.887.84 6.703 1.054 2.807.22 6.356.314 10.67.314h33.08c26.458 0 39.68 11.885 39.68 35.646v5.363c0 24.768-14.055 37.15-42.155 37.15h-99.456l26.008-29.123h73.344c10.457 0 15.681-2.636 15.681-7.93v-4.484c0-4.717-4.681-7.072-14.04-7.072h-32.193c-31.583 0-47.372-11.912-47.372-35.753v-7.712c0-11.561 3.462-20.05 10.398-25.47 6.938-5.425 18.494-8.133 34.67-8.133h75.116v29.116m258.221 96.562v-86.723c0-2.847-2.097-5.203-6.27-7.061-4.194-1.855-9.471-2.778-15.854-2.778h-34.35c-6.046 0-11.086.962-15.1 2.886-4.015 1.929-6.025 4.325-6.025 7.18v86.496h-25.589V167.21c0-24.696 16.123-37.042 48.37-37.042h32.694c31.803 0 47.715 12.268 47.715 36.822v88.856h-25.591m128.854.001V130.169h25.589v125.678h-25.59m85.936-96.562c-12.877 0-19.326 3.636-19.326 10.918v85.644h-25.586v-85.644c0-26.688 15.684-40.034 47.052-40.034h17.331v29.116h-19.47"/><path d="M155.823 169.219c0-7.051 7.321-10.586 21.968-10.586h37.146c13.876 0 20.804 3.604 20.804 10.8v13.182h-79.918zm102.372 57.72h-64.228c-12.654 0-22.016-1.615-28.06-4.828-6.058-3.204-9.087-7.663-9.087-13.376h104.01V166.34c0-5.564-1.069-10.594-3.211-15.092-2.151-4.486-5.122-8.276-8.919-11.342-3.796-3.07-8.336-5.468-13.617-7.179-5.291-1.707-11.011-2.559-17.168-2.559h-37.147c-7.599 0-14.485.924-20.647 2.775-6.165 1.859-11.437 4.536-15.849 8.025-4.393 3.507-7.808 7.784-10.236 12.851-2.425 5.07-3.63 10.743-3.63 17.027v44.31c0 5.427 1.162 10.6 3.466 15.531 2.319 4.921 5.777 9.239 10.4 12.945 4.632 3.712 10.404 6.676 17.344 8.886 6.93 2.221 15.024 3.328 24.261 3.328h45.779l26.539-28.908m470.204-117.079l-18.414-16.975H702.8v37.493h-14.692v26.975H702.8v98.495h25.599v-98.495h38.965v-27.19h-38.965v-20.303m77.34 8.876v-8.876l-18.416-16.975h-7.174v25.85h25.59m234.913 10.365c.672 0 1.296-.026 1.893-.067.59-.041 1.126-.164 1.583-.37.468-.2.839-.517 1.11-.94.278-.413.417-1.005.417-1.757 0-.63-.124-1.14-.371-1.522a2.545 2.545 0 0 0-.957-.863c-.391-.207-.838-.335-1.347-.41a10.465 10.465 0 0 0-1.497-.11h-3.918v6.039zm1.304-8.428c2.26 0 3.936.446 5.02 1.344 1.09.898 1.64 2.264 1.64 4.094 0 1.7-.483 2.954-1.44 3.751-.956.797-2.144 1.264-3.557 1.408l5.425 8.395h-3.173l-5.17-8.172h-3.136v8.172h-2.952V120.67zm-13.403 14.969c.676 1.692 1.62 3.172 2.824 4.408a13.173 13.173 0 0 0 4.255 2.941c1.645.708 3.415 1.054 5.33 1.054 1.883 0 3.634-.346 5.258-1.054a13.242 13.242 0 0 0 4.233-2.941c1.208-1.236 2.144-2.716 2.828-4.408.68-1.692 1.012-3.545 1.012-5.54 0-1.941-.332-3.753-1.012-5.43-.684-1.68-1.62-3.137-2.828-4.37-1.202-1.235-2.614-2.196-4.233-2.908-1.624-.71-3.375-1.068-5.257-1.068-1.916 0-3.686.359-5.331 1.068-1.635.712-3.05 1.673-4.255 2.908-1.204 1.233-2.148 2.69-2.824 4.37-.686 1.677-1.016 3.489-1.016 5.43 0 1.995.33 3.848 1.016 5.54zm-2.677-11.936a16.285 16.285 0 0 1 3.547-5.123 16.458 16.458 0 0 1 5.216-3.41c1.98-.823 4.093-1.239 6.324-1.239 2.228 0 4.332.416 6.297 1.239a16.126 16.126 0 0 1 5.168 3.41 16.388 16.388 0 0 1 3.528 5.123c.864 1.973 1.301 4.105 1.301 6.396 0 2.347-.437 4.512-1.301 6.495-.87 1.982-2.048 3.709-3.528 5.169a15.75 15.75 0 0 1-5.168 3.415c-1.965.808-4.07 1.214-6.297 1.214-2.231 0-4.344-.406-6.324-1.214a16.07 16.07 0 0 1-5.216-3.415 16.384 16.384 0 0 1-3.547-5.17c-.864-1.982-1.3-4.147-1.3-6.494 0-2.29.436-4.423 1.3-6.396"/></g></svg>