<svg xmlns="http://www.w3.org/2000/svg" viewBox="0 0 201.33333 201.33333" height="201.333" width="201.333"><path d="M201.333 201.333H0V0h201.333v201.333" fill="#fff"/><path d="M196.667 196.661V4.671h-192v191.99h192" fill="#f47216"/><path d="M186.91 186.904c.789 0 1.506-.06 1.506-1.019 0-.765-.701-.905-1.35-.905h-1.29v1.924zm-1.134 3.5h-.941v-6.23h2.365c1.484 0 2.203.54 2.203 1.771 0 1.118-.702 1.602-1.612 1.715l1.77 2.744h-1.052l-1.649-2.701h-1.084zm1.143 1.382c2.44 0 4.362-1.915 4.362-4.51 0-2.561-1.922-4.488-4.362-4.488-2.47 0-4.396 1.927-4.396 4.488 0 2.595 1.926 4.51 4.396 4.51zm-5.479-4.51c0-3.103 2.512-5.38 5.479-5.38 2.94 0 5.448 2.277 5.448 5.38 0 3.128-2.508 5.412-5.448 5.412-2.967 0-5.479-2.284-5.479-5.412M4.667 154.241L18.318 140.6c.224-.221 2.198-1.979 3.843-.343.788.798.798 1.814.288 2.771-1.366 2.616-.965 2.896 1.136 5l29.698 29.69c2.101 2.11 2.382 2.503 4.985 1.145.966-.51 1.98-.51 2.783.28 1.632 1.643-.117 3.626-.342 3.853L47.034 196.66h-6.518c.018-.03.034-.068.05-.099 1.35-2.597.96-2.889-1.132-4.983l-29.707-29.7c-2.1-2.1-2.384-2.502-4.974-1.142-.045.014-.052.02-.086.035zm42.59 2.411l-4.974 4.975-3.285-3.282 4.977-4.98L31.1 140.498c-2.09-2.093-2.374-2.49-4.982-1.135-.958.506-1.984.506-2.766-.292-1.651-1.643.108-3.608.332-3.843l16.009-16.008c.225-.224 2.21-1.974 3.841-.342.802.8.802 1.817.292 2.776-1.359 2.608-.958 2.883 1.143 4.982l29.7 29.701c2.09 2.108 2.375 2.508 4.983 1.138.966-.504 1.975-.502 2.774.292 1.632 1.645-.109 3.62-.333 3.854L66.085 177.62c-.234.226-2.21 1.977-3.85.344-.794-.803-.802-1.818-.292-2.775 1.367-2.608.966-2.89-1.124-4.983l-13.561-13.553m55.308-20.378c1.693-3.621.22-5.555-1.21-6.968L71.998 99.946c-1.416-1.416-3.347-2.892-6.954-1.192l-3.293-3.288c13.066-10.911 28.356-6.825 39.642 4.454 11.276 11.283 15.373 26.567 4.456 39.641zm-40.073-34.98c-1.7 3.616-.227 5.546 1.2 6.963L93.05 137.62c1.416 1.417 3.342 2.888 6.968 1.196l3.282 3.288c-13.067 10.912-28.351 6.82-39.642-4.46-11.274-11.282-15.368-26.57-4.449-39.636l3.283 3.288m102.565-26.159c-.789-.792-1.806-.8-2.774-.283-2.6 1.353-2.882.958-4.982-1.141l-29.7-29.701c-2.108-2.092-2.5-2.376-1.143-4.987.5-.96.5-1.978-.291-2.77-1.635-1.643-3.618.106-3.834.332l-14.94 14.933 12.189 22.605-.114.108-23.443-11.346-14.36 14.363c-.681.675-2.381 2.37-.621 4.128 1.359 1.367 3.006-.05 3.732-.674 1.026-.9 1.933-.449 3.282-.106 1.195.282 2.324.85 3.457 1.423l46.902 23.263 1.634-1.638-22.934-42.4 26.318 26.324c2.097 2.1 2.498 2.384 1.141 4.985-.516.965-.508 1.982.29 2.773 1.633 1.643 3.618-.108 3.842-.337l16.016-16.004c.237-.234 1.975-2.212.333-3.85m-44.307 29.899l-9.742-9.749L98.49 89.1l-.106.118 19.09 19.1c6.175 7.986.35 9.403 2.793 11.837 1.759 1.76 3.958-.675 4.584-1.305l6.442-6.436c.624-.626 3.047-2.824 1.29-4.583-2.434-2.438-3.842 3.386-11.833-2.794m44.26-73.265c1.749-2.992.607-6.281-1.043-8.952-.666-1.232-1.234-2.492-.05-3.673 1.752-1.747 3.516.569 3.967 1.022l12.233 12.243c.467.45 2.783 2.212 1.034 3.963-1.192 1.192-2.434.612-3.683-.063-2.665-1.64-5.95-2.77-8.95-1.03zm31.657 15.236l-8.202 8.23-3.28-3.285c4.016-5.148 4.399-11.776 1.4-17.833-.46-1.25-1.036-2.499-.009-3.508 1.808-1.81 3.341.06 3.557.292l6.534 6.533zm-33.54-42.341l7.064 7.065c.285.281 1.31 1.423-.391 3.115-.967.961-1.815.684-2.95.116-6.057-3.132-11.722-3.014-17.49 1.166l-3.293-3.282 8.185-8.18zM128.602 30.32l14.914-14.929 42.408 42.387-14.932 14.934c-.224.228-2.21 1.982-3.85.341-.794-.795-.794-1.817-.283-2.775 1.35-2.61.957-2.891-1.14-4.992l-29.702-29.699c-2.1-2.093-2.384-2.492-4.985-1.133-.966.508-1.991.508-2.772-.284-1.643-1.642.115-3.624.342-3.85M89.984 164.385c5.35-5.477 13.632-6.24 22.24 1.604 7.834 7.132 6.886 16.95 1.592 22.24l-1.84-1.849c1.682-2.207-.033-4.119-1.25-5.325l-13.573-13.578c-1.21-1.208-3.119-2.928-5.32-1.24l-1.849-1.852m11.666 32.276c.102-.218.232-.458.342-.694.416-.794-.508-1.596-.984-2.07l-16.7-16.702c-.482-.475-1.274-1.395-2.072-.981-.851.417-1.552.92-2.353.13-.834-.834-.133-1.724.51-2.361l8.16-8.155 23.828 23.832-6.99 7.001h-3.74m20.701-43.357c.992-1.688.356-3.533-.568-5.035-.393-.698-.709-1.408-.031-2.074.981-.988 1.965.326 2.23.576l6.883 6.886c.251.25 1.559 1.239.569 2.23-.668.67-1.369.35-2.07-.038-1.498-.912-3.348-1.553-5.033-.569zm11.35 11.344c2.255-2.897 2.482-6.627.797-10.044-.255-.696-.582-1.394-.008-1.965 1.026-1.027 1.885.028 2.008.157l6.376 6.375-7.324 7.322zm-21.986-21.987l7.1-7.108 6.47 6.468c.166.167.741.799-.22 1.758-.549.54-1.015.382-1.657.064-3.416-1.75-6.602-1.69-9.85.665zm-9.85 9.847l8.407-8.413 23.843 23.841-8.414 8.41c-.127.123-1.243 1.106-2.167.19-.444-.445-.452-1.015-.159-1.557.758-1.472.542-1.623-.642-2.81l-16.692-16.697c-1.177-1.176-1.344-1.401-2.81-.643-.54.3-1.116.296-1.566-.15-.916-.927.068-2.04.2-2.171m23.578-16.438c-1.185-1.174-1.343-1.4-2.809-.637-.533.291-1.12.283-1.56-.162-.926-.92.058-2.042.193-2.167l8.416-8.409 20.267 20.266c1.176 1.178 1.334 1.404 2.8.639.541-.29 1.113-.29 1.566.152.924.928-.065 2.044-.192 2.168l-9.014 9.025c-.128.13-.994.863-1.918-.059-.45-.45-.526-.95-.242-1.49.768-1.464.364-1.45-.815-2.63zm5.673-12.812c3.024-3.029 5.134-4.5 7.49-5.129 3.768-.959 6.793.22 9.466 2.892 2.678 2.674 3.86 5.708 2.895 9.466-.636 2.362-2.101 4.466-5.125 7.496l-1.851-1.844c1.533-2.239.325-3.644-1.241-5.205l-4.808-4.813c-1.434-1.43-3.035-2.45-4.985-1.017l-1.84-1.846" fill="#fff"/><path d="M173.85 125.463c.953-2.038.118-3.122-.674-3.921l-16.51-16.506c-.8-.798-1.871-1.625-3.915-.669l-1.851-1.848c7.365-6.152 15.965-3.856 22.299 2.484 6.35 6.343 8.653 14.942 2.494 22.308zm-22.534-19.66c-.957 2.038-.132 3.117.67 3.918l16.507 16.503c.799.8 1.882 1.63 3.924.672l1.84 1.849c-7.354 6.15-15.965 3.86-22.3-2.485-6.349-6.34-8.642-14.947-2.49-22.311l1.849 1.854" fill="#fff"/><path d="M159.776 94.605l4.59-4.588 1.845 1.846c-.476 2.837 1.17 5.382 2.581 7.362.61.796 1.268 1.783.372 2.674-.947.955-1.84.259-1.965.13zm27.273-12.435c.136.135.824 1.026-.13 1.976-.895.891-1.886.228-2.67-.385-1.982-1.394-4.53-3.048-7.366-2.57l-1.85-1.846 4.584-4.596zm9.618 23.2l-7.639 7.65c-.128.128-1.245 1.116-2.168.193-.45-.442-.45-1.018-.167-1.56.775-1.467.542-1.623-.625-2.799l-20.276-20.271 7.808-7.808 20.265 20.267c1.178 1.18 1.336 1.394 2.802.628v3.7M22.018 83.028l4.307-4.315 1.741 1.737c-.447 2.667 1.1 5.06 2.426 6.92.576.75 1.2 1.676.36 2.516-.9.9-1.737.243-1.862.118zm25.64-11.683c.118.118.776.96-.124 1.859-.833.838-1.768.21-2.515-.358-1.86-1.321-4.25-2.88-6.918-2.429l-1.734-1.737 4.308-4.31zm-19.981 6.022l7.342-7.338 19.048 19.05c1.098 1.108 1.258 1.317 2.634.6.508-.275 1.049-.275 1.468.146.867.87-.06 1.92-.177 2.038l-8.483 8.478c-.117.122-1.166 1.045-2.032.178-.42-.415-.42-.957-.152-1.469.727-1.375.511-1.526-.593-2.638L27.677 77.367m38.791-15.004l-2.643 2.632-1.733-1.738 2.634-2.636-6.801-6.8c-1.099-1.105-1.258-1.317-2.634-.597-.509.27-1.05.27-1.466-.15-.867-.871.057-1.915.177-2.037l8.48-8.474c.12-.122 1.169-1.05 2.036-.18.416.422.416.953.15 1.462-.715 1.383-.51 1.534.6 2.643l15.698 15.69c1.103 1.109 1.249 1.318 2.633.6.508-.266 1.042-.266 1.469.15.866.868-.068 1.917-.183 2.033l-8.477 8.48c-.115.12-1.174 1.046-2.033.179-.424-.416-.424-.958-.148-1.467.715-1.374.507-1.524-.6-2.633zm3.175 11.14c1.105 1.109 1.256 1.318 2.634.601.507-.272 1.048-.272 1.465.146.875.87-.057 1.92-.185 2.036l-8.472 8.477c-.12.123-1.168 1.049-2.036.182-.416-.42-.416-.958-.148-1.47.716-1.374.508-1.526-.601-2.639l-15.69-15.69c-1.112-1.109-1.258-1.317-2.642-.6-.5.271-1.05.271-1.468-.151-.867-.867.068-1.916.182-2.032l8.477-8.48c.123-.12 1.166-1.05 2.041-.179.42.416.42.957.14 1.467-.715 1.378-.507 1.524.613 2.637l15.69 15.696m16.5-34.596c.923-1.587.332-3.33-.542-4.733-.36-.659-.65-1.316-.023-1.947.924-.928 1.856.301 2.09.543l6.473 6.468c.242.24 1.468 1.165.541 2.093-.632.63-1.29.33-1.95-.028-1.407-.867-3.149-1.467-4.734-.541zm10.666 10.663c2.126-2.726 2.332-6.231.75-9.434-.243-.658-.541-1.321 0-1.858.958-.958 1.76.025 1.884.15l5.992 5.991-6.884 6.888zM76.142 28.904l6.677-6.68 6.083 6.079c.147.152.681.752-.211 1.65-.508.51-.958.36-1.56.059-3.206-1.65-6.197-1.592-9.248.63zm-9.259 9.255l7.908-7.906 22.411 22.4-7.91 7.908c-.125.122-1.174 1.051-2.04.184-.417-.425-.417-.957-.151-1.469.715-1.38.515-1.53-.599-2.639L70.808 40.945c-1.108-1.108-1.26-1.32-2.639-.6-.51.267-1.044.267-1.46-.148-.877-.868.06-1.918.174-2.038" fill="#fff"/></svg>