<svg id="Layer_1" xmlns="http://www.w3.org/2000/svg" viewBox="0 0 605.2 210.7"><style>.st0{fill:#5d616b}.st1{fill:#fff}.st2,.st3{fill-rule:evenodd;clip-rule:evenodd;fill:#5d616b}.st3{fill:#01a5c6}</style><path class="st0" d="M166.9 70.2c3.4 0 6.1 2.7 6.1 6.1 0 3.4-2.8 6-6.1 6-3.4 0-6.1-2.7-6.1-6 0-3.4 2.8-6.1 6.1-6.1zM162 90.5h9.9v49.3H162V90.5zm23 3c4.3-2.5 11.7-4.2 19.8-4.2 12.5 0 21.7 7.5 21.7 24.9v25.6h-9.8v-26.3c0-11.2-4.9-15-12.6-15-4.3 0-7.2.7-9.3 1.6v39.7H185V93.5zm51.9-5.8c0-13.5 7.5-18.1 17.5-18.1 6.1 0 11.5 1.8 15.7 4.9l-3.6 8.5c-3-2.5-7.1-4.1-12-4.1-4.5 0-7.7 2.2-7.7 8.8v3h18.7v9.3h-18.7v40H237V87.7zM274 70.8h9.9v52.8c0 5.9 2.5 7.9 6.2 7.9 2.5 0 4.4-.8 6-1.9l3.2 8.6c-2.8 1.7-6.3 2.6-10.6 2.6-8.4 0-14.7-4.4-14.7-17.2V70.8zm71.5 66.1c-4.3 2.5-11.7 4.2-19.8 4.2-12.5 0-21.7-7.5-21.7-25V90.5h9.8v26.3c0 11.2 4.9 15 12.5 15 4.4 0 7.3-.7 9.4-1.6V90.5h9.9v46.4zm18.1-66.7c3.4 0 6.1 2.7 6.1 6.1 0 3.4-2.8 6-6.1 6-3.4 0-6.1-2.7-6.1-6 0-3.4 2.7-6.1 6.1-6.1zm-4.9 20.3h9.9v49.3h-9.9V90.5zm22.9-14.8h9.9v14.8h19.3v9.3h-19.3v22.9c0 5.8 2.5 8.1 6.2 8.6 1.6.2 3.3.1 4.8-.2 3.6-.5 6.8-1.8 9.1-3.7 1.1 2.9 2.2 5.6 3.2 8.5-4.1 3.3-9.5 4.9-15.6 4.9-10.1 0-17.6-4.7-17.6-18.1v-47zm45.9-5.5c3.4 0 6.1 2.7 6.1 6.1 0 3.4-2.8 6-6.1 6-3.4 0-6.1-2.7-6.1-6 0-3.4 2.7-6.1 6.1-6.1zm-4.9 20.3h9.9v49.3h-9.9V90.5zm41.7 37.4L479 90.5h10.3l-19.8 49.3h-10.3l-19.8-49.3h10.4l14.5 37.4zm71.5-9h-31.6v.4c0 7.9 5.2 12.1 13 12.1 6.1 0 11.7-2 15.2-4.1l3.1 8.5c-4.9 3.2-11.3 4.9-18.2 4.9-13.9 0-23.1-7.3-23.1-24.6V114c0-17.6 8.4-24.9 20.8-24.9 12.3 0 20.8 7.3 20.8 24.9v4.9zm-31.6-7.5h21.4v-.5c0-8.7-4.4-12.4-10.7-12.4-6.2 0-10.7 3.7-10.7 12.4v.5z"/><path class="st1" d="M91.1 74.2c-.2.6-.3 1.3-.4 1.9.1-.6.2-1.2.4-1.9z"/><path class="st2" d="M138.3 112.9c-3 16.4-17.3 28.2-34.1 28.3-16.6 0-30.9-11.7-34-28.1-3.3-16.4 5.5-32.6 20.9-38.8-.2.6-.3 1.3-.4 1.9-.4 2.7.1 5.4 1.4 7.9-10.2 5.6-15.2 17.2-12.5 28.6 2.9 11.2 13 19.1 24.5 19 11.8 0 21.8-8 24.7-19.2 2.7-11.4-2.6-22.9-12.6-28.5 1.1-2.2 1.6-4.5 1.5-6.9v-.2c-.1-.9-.2-1.8-.5-2.7 15.4 6.1 24.3 22.3 21.1 38.7z"/><path class="st3" d="M97.1 94.3c-5.4 3.1-8.1 9.5-6.3 15.6 1.6 6.2 7.2 10.4 13.3 10.4 6.4 0 11.9-4.3 13.5-10.5 1.7-6.2-1-12.5-6.4-15.6-.2 0-2.9-1.9-3.5-4.8-.4-2.1.6-4.2 2.1-5.8 2.3-2.3 3.1-5.8 1.9-8.9-1.4-3.1-4.3-5.2-7.7-5.2-3.3 0-6.2 2.1-7.5 5.2-1.2 3.1-.4 6.6 2 8.9 1.5 1.5 2.5 3.7 2.1 5.8-.6 3.5-3.5 4.9-3.5 4.9"/></svg>