<svg id="new" xmlns="http://www.w3.org/2000/svg" width="2000" height="800" viewBox="705.5 1257 2000 800"><style>.st0{fill:#ff8200}.st1{fill:#43b02a}</style><g id="Logo"><path id="Carrot_2_" class="st0" d="M1049.08 1623.23c20.452 20.552 37.173 54.203 27.602 74.195-25.6 53.468-216.597 147.233-232.823 131.007-16.225-16.226 77.611-207.293 131.08-232.893 19.994-9.574 53.651 7.154 74.203 27.61 0 0-.02.028-.063.08z"/><path id="Leaves_2_" class="st1" d="M1150.266 1600.657h.002c-3.326-12.3-11.802-24.723-24.456-26.195-23.205-2.7-59.788 38.33-57.178 48.068 2.61 9.74 54.289 26.904 73.595 13.029 9.95-7.152 11.35-22.6 8.082-34.914l-.045.012zm-71.825-113.674c17.24 4.665 34.655 16.548 36.718 34.286 3.784 32.535-53.74 83.824-67.394 80.166-13.655-3.66-37.72-76.116-18.268-103.184 10.027-13.951 31.686-15.914 48.951-11.33l-.007.062z"/></g><path class="st1" d="M1592.381 1679.583l-17.083-2.59c-16.28-2.402-25.703-7.671-25.703-17.273 0-11.008 12.265-17.845 30.4-17.845 12.826 0 23.266 4.807 33.259 9.897l1.988 1.009a16.118 16.118 0 0 0 7.357 1.763 16.28 16.28 0 0 0 14.256-8.407l1.395-2.522a16.545 16.545 0 0 0 1.323-13.012c-1.355-4.365-4.348-7.893-8.424-9.936-14.56-7.292-30.351-13.836-51.153-13.836-43.475 0-71.483 20.992-71.483 54.784 0 27.738 19.933 45.126 57.655 50.285l17.235 2.243c18.212 2.555 27.066 7.944 27.066 16.478 0 7.884-4.262 18.365-32.473 18.365-15.552 0-31.343-3.947-44.162-12.068a15.93 15.93 0 0 0-8.534-2.476c-5.627 0-10.97 2.987-13.942 7.797l-.958 1.554a16.829 16.829 0 0 0-1.968 12.989c1.132 4.387 3.912 8.014 7.825 10.215 22.352 12.569 48.15 17.029 61.739 17.029 45.323 0 73.382-19.868 73.382-54.82 0-27.97-19.853-44.002-58.997-49.623zm527.015 61.049a17.308 17.308 0 0 0-12.878-5.747 17.45 17.45 0 0 0-9.372 2.734c-9.223 5.854-19.332 8.949-29.238 8.949-27.234 0-47-21.507-47-51.14s19.766-51.14 47-51.14c10.454 0 19.808 2.84 28.597 8.687 6.805 4.524 16.583 3.365 22.175-2.608l1.453-1.544a18.987 18.987 0 0 0 5.004-15.215c-.637-5.478-3.62-10.355-8.18-13.377-13.39-8.88-29.992-13.572-48.013-13.572-52.268 0-88.774 36.504-88.774 88.77 0 52.267 36.506 88.771 88.774 88.771 18.092 0 34.786-4.789 48.277-13.848a18.79 18.79 0 0 0 8.151-13.273 18.97 18.97 0 0 0-4.691-15.012l-1.285-1.435zm-845.889-194.034c-13.604 0-24.26 10.792-24.26 24.57 0 13.83 10.43 24.259 24.26 24.259 13.777 0 24.567-10.656 24.567-24.26 0-13.777-10.79-24.57-24.567-24.57zm7.343 61.498h-14.312c-7.011 0-12.695 5.684-12.695 12.695v146.395c0 7.014 5.686 12.7 12.7 12.7h14.302c7.014 0 12.7-5.686 12.7-12.7v-146.395c0-7.011-5.683-12.695-12.695-12.695zm469.837 137.711c-16.06-.063-34.725-12.65-34.725-34.686v-66.033h34.844c7.014 0 12.7-5.686 12.7-12.7v-11.592c0-7.014-5.686-12.7-12.7-12.7h-34.844v-38.108c0-7.014-5.686-12.7-12.7-12.7h-15.099c-7.014 0-12.7 5.686-12.7 12.7v138.769c0 39.946 30.314 75.269 72.292 75.269h.015c4.19 0 8.137-1.641 11.116-4.62 2.979-2.979 4.62-6.926 4.62-11.116v-9.784c0-7.05-5.768-12.672-12.82-12.7zM1403.9 1606.659c-50.806 0-79.138 40.633-79.138 75.408v85.12c0 7.013 5.686 12.7 12.7 12.7h14.476c7.014 0 12.7-5.687 12.7-12.7v-78.731c0-26.36 15.971-43.821 39.263-43.821s39.263 17.461 39.263 43.82v78.731c0 7.014 5.686 12.7 12.7 12.7h14.475c7.014 0 12.7-5.686 12.7-12.7v-85.12c0-34.774-28.331-75.407-79.138-75.407zm1045.034 1.763c-5.503-1.203-19.314-1.763-26.461-1.763-.645 0-1.278.023-1.902.023-39.342 0-75.657 32.07-75.657 76.273-.004.036-.013.078-.013.11v84.121c0 7.014 5.686 12.7 12.7 12.7h14.476c7.014 0 12.7-5.686 12.7-12.7v-82.776c0-24.065 17.18-39.75 38.232-39.75 3.855.06 7.992.492 12.043 1.294 1.104.217 2.229.327 3.343.327 8.03 0 14.99-5.546 16.872-13.357 1.033-4.29 1.793-7.484 2.509-10.4s.228-6.224-1.445-8.898a11.562 11.562 0 0 0-7.397-5.204zm106.166 36.666c7.014 0 12.7-5.686 12.7-12.7v-11.592c0-7.014-5.686-12.7-12.7-12.7h-34.844v-38.108c0-7.014-5.686-12.7-12.7-12.7h-15.098c-7.014 0-12.7 5.686-12.7 12.7v138.769c0 39.946 30.314 75.269 72.292 75.269h.014c4.19 0 8.138-1.641 11.116-4.62 2.979-2.979 4.62-6.926 4.62-11.116v-9.784c0-7.05-5.768-12.672-12.82-12.7-16.059-.062-34.724-12.649-34.724-34.685v-66.033h34.844zm-276.247-24.808c-.023-.015-.043-.034-.066-.049-13.39-8.88-29.992-13.572-48.014-13.572-.314 0-.62.018-.932.02-.313-.002-.62-.02-.933-.02-18.022 0-34.623 4.693-48.013 13.572-.023.015-.043.033-.065.048-24.11 15.17-38.83 41.976-38.83 75.15 0 34.75 16.15 62.516 42.329 77.235 12.205 7.204 26.695 11.5 42.313 11.511 28.525.02 45.748-16.141 51.164-23.196v6.082c0 7.014 5.686 12.7 12.7 12.7h14.476c7.014 0 12.7-5.686 12.7-12.7v-71.633c0-33.172-14.721-59.978-38.83-75.148zm-33.06 123.624c-4.637 1.535-9.36 2.423-14.055 2.62-.343.011-.687.02-1.033.025-.288.006-.577.016-.864.017-.288 0-.576-.011-.864-.017-.346-.005-.69-.014-1.034-.026-4.694-.196-9.417-1.084-14.055-2.619-18.719-6.61-31.15-24.982-31.15-48.475 0-27.743 17.326-48.362 41.884-50.88l.39-.034a55.567 55.567 0 0 1 2.629-.175 50.964 50.964 0 0 1 1.634-.04c.189-.003.376-.01.566-.01.19 0 .377.007.566.01a50.993 50.993 0 0 1 4.263.215l.39.034c24.558 2.518 41.883 23.137 41.883 50.88 0 23.493-12.43 41.866-31.15 48.475zm-328.251-123.624c-.023-.015-.043-.034-.065-.049-13.391-8.88-29.993-13.572-48.014-13.572-.314 0-.62.018-.933.02-.313-.002-.619-.02-.933-.02-18.021 0-34.623 4.693-48.013 13.572-.023.015-.043.033-.065.048-24.109 15.171-38.83 41.976-38.83 75.15 0 34.75 16.15 62.516 42.329 77.235 12.205 7.204 26.695 11.5 42.313 11.511 28.525.02 45.748-16.141 51.165-23.196v6.082c0 7.014 5.686 12.7 12.7 12.7h14.475c7.014 0 12.7-5.686 12.7-12.7v-71.633c0-33.172-14.72-59.978-38.83-75.148zm-33.06 123.624c-4.637 1.535-9.36 2.423-14.055 2.62-.343.011-.687.02-1.033.025-.288.006-.576.016-.864.017-.288 0-.576-.011-.864-.017a50.32 50.32 0 0 1-1.033-.026c-4.695-.196-9.418-1.084-14.055-2.619-18.72-6.61-31.15-24.982-31.15-48.475 0-27.743 17.325-48.362 41.883-50.88l.39-.034a55.534 55.534 0 0 1 2.629-.175 50.964 50.964 0 0 1 1.634-.04c.19-.003.376-.01.566-.01.19 0 .377.007.566.01a50.993 50.993 0 0 1 4.264.215l.389.034c24.558 2.518 41.884 23.137 41.884 50.88 0 23.493-12.431 41.866-31.15 48.475z" id="Logotype"/></svg>