<svg xmlns="http://www.w3.org/2000/svg" viewBox="0 0 88 100"><path fill="#40B4E6" d="M83.7 46.6c2.9 0 4.4 2.3 4.4 5.1s-1.6 5.1-4.4 5.1c-2.9 0-5.1-2.3-5.1-5.1-.1-2.8 2.2-5.1 5.1-5.1z"/><path fill="#82BC41" d="M42.5 64.8h-9.2V41.7h9.2v23.1z"/><path fill="#82BC41" d="M37.9 60.1c2.5 0 4.6 2.1 4.6 4.6 0 2.6-2 4.6-4.6 4.6-2.6 0-4.6-2.1-4.6-4.6 0-2.6 2-4.6 4.6-4.6zm0-23.2c2.5 0 4.6 2.1 4.6 4.6 0 2.6-2 4.6-4.6 4.6-2.6 0-4.6-2.1-4.6-4.6 0-2.5 2-4.6 4.6-4.6zM4.6 60.1c2.5 0 4.5 2 4.5 4.6 0 2.6-2 4.6-4.5 4.6s-4.5-2-4.5-4.6c0-2.5 2-4.6 4.5-4.6zm0-35.2c2.5 0 4.5 2.1 4.5 4.6 0 2.6-2 4.6-4.5 4.6S.1 32 .1 29.5c0-2.6 2-4.6 4.5-4.6z"/><path fill="#82BC41" d="M0 29.7l9.2.1v17l8.6-8.4 6.8 6.4-6 5.9L27 62l-7.5 5.4-8-10.7-2.3 2.1v6L0 64.5V29.7z"/><path fill="#82BC41" d="M21.2 36.9c2.6 0 4.6 2 4.6 4.6 0 2.6-2 4.6-4.6 4.6s-4.6-2.1-4.6-4.6c0-2.5 2.1-4.6 4.6-4.6zM23.1 60c2.5 0 4.6 2.1 4.6 4.6 0 2.6-2 4.6-4.6 4.6-2.5 0-4.6-2.1-4.6-4.6 0-2.5 2.1-4.6 4.6-4.6zm30.5.1c2.5 0 4.5 2 4.5 4.6 0 2.6-2 4.6-4.5 4.6s-4.5-2-4.5-4.6c0-2.5 2-4.6 4.5-4.6zm0-35.2c2.5 0 4.5 2.1 4.5 4.6 0 2.6-2 4.6-4.5 4.6s-4.5-2.1-4.5-4.6c0-2.6 2-4.6 4.5-4.6z"/><path fill="#82BC41" d="M49 29.7l9.2.1v17l8.6-8.4 6.8 6.4-6 5.9L76 62l-7.5 5.4-8-10.7-2.3 2.1v6l-9.2-.3V29.7z"/><path fill="#82BC41" d="M70.2 36.9c2.6 0 4.6 2 4.6 4.6 0 2.6-2 4.6-4.6 4.6-2.6 0-4.6-2.1-4.6-4.6 0-2.5 2.1-4.6 4.6-4.6zM72.1 60c2.5 0 4.6 2.1 4.6 4.6 0 2.6-2 4.6-4.6 4.6-2.5 0-4.6-2.1-4.6-4.6 0-2.5 2.1-4.6 4.6-4.6z"/></svg>