<svg xmlns="http://www.w3.org/2000/svg" width="124.859" height="23.904" viewBox="0 0 33.035663 6.3245337"><g fill="#0f6a37" stroke-width=".353"><path d="M14.139 1.67v.208h-.13c-.491 0-.628.15-.628.68V5.18c0 .53.137.68.627.68h.13v.209H11.72V5.86h.13c.491 0 .629-.15.629-.68V2.336h-.014l-1.751 3.732h-.203L8.753 2.401H8.74V5.18c0 .53.137.68.627.68h.092v.209H7.701V5.86h.091c.484 0 .62-.15.62-.68V2.56c0-.53-.136-.68-.62-.68h-.097v-.21h1.699l1.523 3.197 1.51-3.197zm3.255 3.947a1.6 1.6 0 0 1-.333.372.839.839 0 0 1-.53.203c-.294 0-.496-.196-.496-.477v-.072c-.17.163-.432.34-.673.457a.8.8 0 0 1-.373.092c-.451 0-.739-.327-.739-.83 0-.216.092-.431.236-.575.19-.183.438-.314.908-.477l.588-.196.053-.02v-.412c0-.346-.125-.477-.464-.477-.288 0-.458.118-.458.327 0 .007 0 .039.007.092v.032c0 .222-.13.36-.34.36a.323.323 0 0 1-.34-.34c0-.432.497-.733 1.196-.733.406 0 .739.085.948.249.157.13.229.288.235.555v1.55c0 .222.006.248.02.3.006.026.02.053.046.072.02.02.046.026.078.026.092 0 .209-.085.327-.229zm-1.399-1.229c-.575.196-.535.177-.725.294a.683.683 0 0 0-.216.216.485.485 0 0 0-.058.235c0 .275.19.497.418.497.163 0 .45-.15.62-.313v-.942zm2.673-.993c.34-.301.692-.451 1.039-.451.386 0 .719.202.83.51.066.176.085.385.085.823v1.111c0 .373.078.47.366.47h.059v.21h-1.615v-.21h.033c.294 0 .372-.097.372-.47V4.33c0-.458-.019-.568-.097-.693a.424.424 0 0 0-.347-.176c-.242 0-.49.098-.725.288v1.64c0 .373.078.47.366.47h.105v.21h-1.667v-.21h.04c.286 0 .365-.097.365-.47v-1.34c0-.28-.013-.405-.053-.503a.251.251 0 0 0-.24-.15c-.034 0-.067 0-.119.013v-.236l.928-.228h.275zm5.477 1.719l.006.274c.007.216.072.307.229.307.04 0 .124-.02.196-.039v.223l-.96.313h-.262v-.457c-.333.294-.706.457-1.046.457-.418 0-.771-.268-.856-.64-.046-.19-.052-.275-.052-.745v-1.06c0-.339-.079-.463-.314-.463v-.21h1.104v1.843c0 .419.033.536.164.648.078.072.19.11.314.11.15 0 .261-.032.45-.136.125-.066.157-.086.236-.15V3.746c0-.365-.079-.463-.366-.463h-.137v-.21h1.294zm1.667.274c0 .36.079.471.347.471h.02v.21h-1.543v-.21h.02c.294 0 .366-.098.366-.47V2.675c0-.34-.006-.458-.04-.55a.251.251 0 0 0-.242-.163h-.059c-.006 0-.02 0-.04.007l-.038-.216.941-.163h.268zm.484.68v-.21h.105c.287 0 .366-.097.366-.47V4.022c0-.287-.013-.412-.052-.503a.247.247 0 0 0-.242-.157.347.347 0 0 0-.137.026l-.053-.216 1-.228h.275v2.444c0 .373.078.47.366.47h.065v.21zm.89-3.536a.469.469 0 0 1-.472-.47.47.47 0 0 1 .471-.471c.262 0 .47.209.47.47a.472.472 0 0 1-.47.471m.961 3.536v-.21h.13c.288 0 .367-.097.367-.47v-1.94h-.497v-.374h.497v-.097c0-.804.615-1.386 1.457-1.386.426 0 .706.19.706.483 0 .216-.15.367-.385.367-.124 0-.236-.072-.34-.23l-.066-.091c-.078-.124-.15-.17-.261-.17-.15 0-.261.105-.294.268-.026.099-.033.196-.033.418v.438h.582v.373h-.582v1.941c0 .373.079.47.373.47h.21v.21z"/><path d="M32.903 5.048a1.798 1.798 0 0 1-.477.771 1.252 1.252 0 0 1-.895.373c-.804 0-1.373-.673-1.373-1.634 0-.967.575-1.614 1.432-1.614.77 0 1.274.516 1.274 1.3v.072H30.87c.046.7.45 1.184.993 1.184.36 0 .693-.21.882-.543zm-.895-1.065V3.93c0-.425-.203-.7-.51-.7-.353 0-.595.288-.634.752zm-26.612.882l-.887.863V2.225l.887-.863zm-1.465.01l-.888.863V2.236l.888-.863zm-1.458.001l-.888.863V2.237l.888-.863zM.133 6.067h5.934V.132H.132z"/></g></svg>