<svg xmlns="http://www.w3.org/2000/svg" viewBox="0 0 212.94444 51.400002" width="212.944" height="51.4"><path d="M191.6 31.4h20.8c.3 0 .5-.2.5-.5.1-.3 0-.6 0-.6 0-7.3-5.7-12.7-12.5-12.7-6.9 0-12.4 5.7-12.4 12.5 0 7.1 5.8 12.6 12.8 12.5h.2c4.6 0 8.6-2.6 10.6-6.5.1-.3-.1-.5-.4-.5h-2.8c-.3 0-.5.2-.8.6-1.3 1.7-3.9 3.1-6.7 3.1-5.6-.1-8.4-3.8-9.3-7.9zm0-3c.9-4.2 4.4-7.1 8.6-7.1 4.4 0 7.7 3.1 8.6 7.1zM75.9 23c-5-1.2-5.8-2.6-5.8-5.3 0-2.9 2.7-5.4 5.9-5.4 3.9 0 6.1 2.5 6.2 5.2 0 .3.2.5.5.5h2.6c.3 0 .5-.2.5-.5 0-2.2-1.1-4.5-3-6.1-1.8-1.6-4.4-2.6-6.9-2.6-5.4 0-9.6 4.1-9.6 8.9 0 2.5.7 4.4 2.2 5.8 1.4 1.3 3.4 2.3 6.4 3 7 1.7 8.5 3.7 8.5 6.2.1 3.4-3.6 6.3-7.3 6.2-5-.1-7-3.6-7.2-5.7 0-.4-.2-.5-.5-.5h-2.5c-.3 0-.5.2-.5.5 0 2.1 2.1 9.1 10.9 9.4 2.9 0 5.6-1 7.6-2.8 2.1-1.9 3.3-4.4 3.3-7 0-6.3-5.7-8.5-11.3-9.8zm93.3-4.4h-2.8c-.2 0-.4.2-.4.4v3.1c-2-2.6-5.1-4.1-8.6-4.1-7 0-12.6 5.4-12.6 12.2 0 6.9 5.5 12.3 12.6 12.3 3.6 0 6.6-1.5 8.6-4.1v3.1c0 .2.2.4.4.4h2.8c.2 0 .4-.2.4-.4V19.1c0-.3-.1-.5-.4-.5zm-11.8 20.7c-5.3 0-9-3.8-9-8.9 0-5.3 3.8-9.1 9-9.1 4.9 0 8.8 4.1 8.8 9 0 5.1-3.9 9-8.8 9zm-45.6 11.6c0 .2.2.4.4.4h2.8c.2 0 .4-.2.4-.4V19.1c0-.2-.2-.4-.4-.4h-2.8c-.2 0-.4.2-.4.4v3c-2-2.6-5.1-4.1-8.6-4.1-7 0-12.6 5.4-12.6 12.2 0 6.9 5.5 12.3 12.6 12.3 3.5 0 6.6-1.5 8.6-4zm-8.7-11.6c-5.3 0-9-3.8-9-8.9 0-5.3 3.8-9.1 9-9.1 4.9 0 8.8 4.1 8.8 9 0 5.1-3.9 9-8.8 9zm34.4 2.3c0 .2.2.4.4.4h2.8c.2 0 .4-.2.4-.4V19c0-.2-.2-.4-.4-.4h-2.8c-.2 0-.4.2-.4.4v11.9c0 2.7-.4 4.9-2.3 6.6-1.3 1.2-2.7 1.8-4.7 1.8-4.5 0-6.6-2.6-6.6-7.9V19c0-.2-.2-.4-.4-.4h-2.8c-.2 0-.4.2-.4.4v12.5c0 3.4.7 5.8 2.1 7.5 1.8 2.3 4.8 3.6 8.1 3.6 3 0 5.5-1.2 6.9-3.2v2.2zM179 19c0-.2-.2-.4-.4-.4h-2.8c-.2 0-.4.2-.4.4v22.6c0 .2.2.4.4.4h2.8c.2 0 .4-.2.4-.4V30.3c0-5 3.8-9 8.6-9 .4 0 .5-.2.5-.5v-2.2c0-.4-.2-.5-.5-.6-3.6 0-6.7 1.5-8.6 4.1z" fill="#010101"/><g fill="#020202"><path d="M42.8 0H8.6C3.8 0 0 3.9 0 8.6v34.2c0 4.8 3.9 8.6 8.6 8.6h34.2c4.8 0 8.6-3.9 8.6-8.6V8.6C51.3 3.9 47.6 0 42.8 0zM42 39.3c0 1.5-1.2 2.7-2.7 2.7H12.1c-1.5 0-2.7-1.2-2.7-2.7V12.1c0-1.5 1.2-2.7 2.7-2.7h27.3c1.5 0 2.7 1.2 2.7 2.7v27.2z"/><path d="M20.2 32.7c-.9 0-1.6-.7-1.6-1.6V20.2c0-.9.7-1.6 1.6-1.6h10.9c.9 0 1.6.7 1.6 1.6v10.9c0 .9-.7 1.6-1.6 1.6z"/></g></svg>