<svg id="Layer_1" data-name="Layer 1" xmlns="http://www.w3.org/2000/svg" viewBox="0 0 150 36"><defs><style>.cls-1{fill:#ff9e16}.cls-2{fill:#8a8a8d}</style></defs><title>Artboard 1</title><path class="cls-1" d="M122 5.47h-5.62l-9.54 19-9.51-19h-5.56l15.1 30.21zM78.39 29.86a10 10 0 0 1-9.66-7.55h24.39v-2.39a14.72 14.72 0 1 0-1.69 6.87h-5.84a9.94 9.94 0 0 1-7.2 3.08m0-19.89A10 10 0 0 1 88 17.53H68.73A10 10 0 0 1 78.39 10M150 20V5.55h-4.8v3.63a14.73 14.73 0 1 0 0 21.69v3.66h4.8v-14.5M135.26 30a9.94 9.94 0 1 1 9.94-10.11v.33a10 10 0 0 1-9.94 9.78m-89.58-.14A10 10 0 0 1 36 22.32h24.4v-2.4a14.73 14.73 0 1 0-1.7 6.87h-5.82a9.93 9.93 0 0 1-7.2 3.08m0-19.89a10 10 0 0 1 9.66 7.55H36A10 10 0 0 1 45.68 10M.23 1h5.92l11.27 22.64L28.6 1h5.81L17.36 35.63.23 1z"/><path class="cls-1" d="M.23 1h5.92l11.27 22.64L28.6 1h5.81L17.36 35.63.23 1z"/><path class="cls-2" d="M9.63 1.06l7.7 15.37L25 1.06S9.63 1 9.63 1.06z"/></svg>