<svg xmlns="http://www.w3.org/2000/svg" viewBox="0 0 812.53333 186.72" height="186.72" width="812.533"><path d="M134.368 19.803C120.118 7.473 101.561-.003 81.245-.003c-32.39 0-60.342 18.951-73.394 46.367l51.738 54.324 74.779-80.885" fill="#f58013"/><path d="M143.725 29.321l-83.989 90.85L2.734 60.317A81.337 81.337 0 0 0 0 81.236c0 44.868 36.374 81.233 81.245 81.233 44.864 0 81.234-36.365 81.234-81.233 0-19.744-7.048-37.835-18.754-51.915" fill="#213755"/><path d="M440.695 177.656l2.833-8.385 2.815 8.385zm-.803-14.06l-8.393 22.293h6.529l1.104-3.216h8.775l1.109 3.216h6.519l-8.391-22.293h-7.252m44.121 14.884h-1.952v-18.8h2.043c5.624 0 9.581 3.381 9.581 9.405 0 6.549-4.456 9.395-9.672 9.395m1.698-26.2h-12.379v33.61h12.379c9.312 0 17.077-7.353 17.077-16.805 0-9.45-7.712-16.805-17.077-16.805m30.279 15.068h-.842v-8.376h.843c2.858 0 6.072.52 6.072 4.185 0 3.642-3.214 4.191-6.072 4.191m15.146-4.725c0-7.176-5.034-10.354-11.668-10.354h-13.066v33.62h8.745v-12.925h.092l8.248 12.925h10.87l-10.566-13.776c4.764-.845 7.345-4.856 7.345-9.49m36.875 11.373h-.093l-6.587-21.716h-6.959l-7.046 21.716h-.088l-5.846-21.716h-9.08l10.031 33.61h8.865l6.595-19.475h.099l5.882 19.474h8.91l10.728-33.61h-9.088l-6.323 21.717m29.078-9.895c-2.41 2.45-3.72 5.77-3.72 9.204 0 3.755 1.282 7.04 4.053 9.524 2.614 2.382 5.948 3.72 9.456 3.72 2.044 0 3.614-.5 5.784-1.164v-7.858c-1.364 1.64-3.5 2.677-5.643 2.677-4.087 0-6.824-2.89-6.824-6.853 0-3.903 2.712-6.98 6.724-6.98 2.243 0 4.41.963 5.743 2.768v-7.854c-1.932-.805-3.883-1.28-5.982-1.28-3.538 0-7.114 1.555-9.592 4.096m32.298 16.274c-3.915 0-7.131-3.19-7.131-7.53 0-3.474 3.216-6.649 7.13-6.649 3.918 0 7.115 3.175 7.115 6.65 0 4.34-3.197 7.529-7.114 7.529m0-20.543c-7.25 0-13.938 5.36-13.938 12.973 0 8.175 5.844 13.915 13.938 13.915 8.084 0 13.948-5.74 13.948-13.915 0-7.613-6.696-12.973-13.948-12.973m36.418.852l-5.416 13.456-5.12-13.456h-6.44l-4.278 25.205h6.501l2.113-14.505h.076l5.784 14.505h2.599l6.05-14.505h.067l1.839 14.505h6.555l-3.808-25.205h-6.522m20.77 11.563h-1.091v-6.28h1.09c2.542 0 4.713.03 4.713 3.202 0 3.078-2.344 3.078-4.712 3.078m2.368-11.563h-10.026v25.205h6.567v-8.362h3.697c5.71 0 8.926-2.615 8.926-8.556 0-5.79-3.746-8.287-9.164-8.287m17.832 15.806l2.708-8.023h.07l2.683 8.024zm-.798-15.806l-9.702 25.205h6.961l1.739-4.38h9.024l1.638 4.38h6.983l-9.5-25.205h-7.143m37.311 15.392h-.056l-12.01-15.392h-6.549v25.205h6.55v-15.442h.073l11.992 15.442h6.547v-25.205h-6.547v15.392m20.64-8.54l-4.716-6.852h-7.85l9.289 13.095v12.11h6.548v-12.11l9.294-13.095h-7.858l-4.707 6.852" fill="#f58013"/><path d="M193.263 34.72h19.55l29.478 55.84 28.554-55.84h19.563l-48.117 90.4-49.028-90.4m126.72 87.761h-17.29V34.72h17.29v87.761m94.232-12.507c-10.226 10.496-22.588 13.84-32.576 13.84-25.015 0-45.23-20.213-45.23-45.205 0-25.018 20.215-45.225 45.23-45.225 9.988 0 22.35 3.299 32.576 13.812l-12.371 11.46c-5.052-5.339-12.09-8.66-20.205-8.66-15.827 0-27.934 12.777-27.934 28.613 0 15.805 12.107 28.58 27.934 28.58 5.706 0 10.92-1.609 15.293-4.52v-24.06h17.283v31.365m33.495 12.507h-17.287V34.72h17.288v87.761m70.489 0h-53.863V34.72h17.298v71.801H518.2v15.96m42.96-30.708h22.245l-11.01-25.159zm11.235-59.722l41.129 90.43h-16.685l-6.454-14.757H553.95l-6.552 14.757h-16.693l41.69-90.43m70.735 90.43h-17.274V32.307l62.4 51.814V34.72h18.701v90.285l-63.826-51.868v49.344m115.756 0V50.66h-35.674V34.72h89.315v15.94h-36.352v71.821h-17.29" fill="#213755"/><path d="M383.624 93.616h30.372V78.324h-30.372v15.292" fill="#213755"/></svg>