<svg xmlns="http://www.w3.org/2000/svg" width="451.885" height="255" viewBox="78.489 255.5 451.885 255"><path d="M195.917 318.707c-.077 1.377-.688 2.142-1.759 2.524-2.066.765-4.284 1.3-6.426 1.76a32.286 32.286 0 0 0-7.803-5.202c-4.055-4.437-7.574-7.574-10.481-9.41-2.83-1.759-5.814-2.983-8.95-3.519a22.175 22.175 0 0 0-9.256.153c-3.137.765-6.044 2.142-8.645 4.208-5.814 1.224-10.328 3.289-13.541 6.043-2.372.229-4.055.841-5.125 1.759-3.978-.612-7.65-1.606-11.093-2.601-3.825-1.147-6.885-3.136-8.415-6.579-3.672-8.186-6.12-19.202-7.497-33.048-9.715 18.284-15.835 37.638-18.437 58.14 9.41 6.732 19.661 12.164 30.83 16.294-.765 2.907-1.224 5.737-1.606 8.721-.076.306.077.535.306.765.612.765.612 1.53 0 2.219-.765.841-1.53 1.683-2.142 2.524-.382.459-.459.994-.382 1.606l.765 5.661c.153 1.071.077 2.065-.306 3.06l-5.891 16.754c2.601.076 5.202-.076 7.65-.612-1.147 6.962-2.065 13.847-2.677 20.809a113.198 113.198 0 0 0 12.087-2.219c-.536 4.59-.842 9.18-.765 13.923a216.814 216.814 0 0 0 14.382-2.065c1.301 6.12 2.907 12.24 4.743 18.283 5.584-1.606 10.863-3.519 15.912-5.813 6.579 6.961 13.77 13.081 21.573 18.283 7.344-5.737 13.77-11.857 19.431-18.437a99.6 99.6 0 0 0 8.262 7.803 112.296 112.296 0 0 0 5.278-17.671c3.672 1.3 7.191 2.295 10.48 2.983a220.948 220.948 0 0 0-3.825-21.879 71.57 71.57 0 0 0 6.809.535l-19.507-47.43c1.147-1.454 2.601-2.678 4.284-4.055.306-.229.229-.536-.077-.765l-2.907-2.295c8.568-3.596 15.071-8.033 19.508-13.311-5.202-19.048-14.306-35.267-27.387-48.654 1.223 10.176 2.217 20.351 2.6 30.755zm.152-21.497c3.978 8.186 6.197 16.677 8.033 26.163.688 3.749-4.743-.918-5.202-5.508-.612-7.344-1.377-12.928-2.831-20.655zm-12.239 25.398c6.655 5.049 10.557 12.087 11.781 21.038-.918.229-1.912.459-2.831.841l.765-2.524c.077-.382-.077-.382-.536-.229-2.065.995-3.978 2.142-5.737 3.519-6.426-2.754-13.541-4.36-21.343-4.667-3.213-2.677-6.885-4.59-10.863-5.737-.688-.229-.995-.077-.995.382v2.372c0 .612-.306.841-.994.612-3.825-1.147-7.803-1.53-11.781-1.224-.612.076-.841.229-.612.612l3.213 4.437c.077.153.077.229.077.382-9.792 1.913-20.502 5.279-31.977 10.021l.612-2.983c.459-.077.918-.229 1.454-.382 2.524-.918 5.125-2.754 7.879-5.661a26.222 26.222 0 0 0 4.36-6.12c1.148-2.218 1.836-4.59 2.142-7.038.536-4.131.459-7.42-.153-9.945-.229-.995-.536-1.759-.841-2.142 3.213-.765 5.661-.153 7.267 1.913 1.683 2.065 2.066 4.896 1.147 8.415 7.574-3.06 16.295-4.743 26.163-4.896-.688-9.104-5.202-14.076-13.387-14.917 10.48-5.661 26.01 1.913 33.125 19.278 2.983 1.76 5.737 4.131 8.186 7.038a123.944 123.944 0 0 0-6.121-12.395zm-8.798 29.223a44.226 44.226 0 0 0-3.672-5.584c4.59-.612 8.645.153 12.011 2.372-.995.994-1.913 1.989-2.754 3.06-.459.688-.536 1.836-.077 3.366.382 1.071 1.454 2.219 3.213 3.442 3.596 2.601 7.268 5.126 10.939 7.421.842.535 1.454.382 1.989-.307.688-1.147 1.147-2.371 1.453-3.825l3.29 8.721c-2.295-1.071-4.819-1.836-7.42-2.295a61.805 61.805 0 0 1 2.295 9.18 44.17 44.17 0 0 0-7.344-4.36c.765-1.683 1.224-3.137 1.224-4.514.076-.994-.383-1.76-1.148-2.142.306 1.989-.994 4.131-3.978 6.426-1.454 1.071-3.213 1.301-5.279.765-5.355-1.683-9.869-3.748-13.311-6.35-1.3-.994-.765-1.912.229-4.054a41.537 41.537 0 0 0-3.29 3.136c-.918 1.071-.612 1.836.383 3.137a219.586 219.586 0 0 0-25.627 8.645c1.836-4.666 3.289-9.18 4.36-13.617-4.131-.459-8.415-.076-12.929 1.147l2.065-14.688a103.242 103.242 0 0 1 9.945-2.831l-2.907 4.131c-.382.765-.306 1.377.229 1.836 3.978 3.519 8.339 6.426 12.929 8.874.306.077.688.077 1.224-.229 3.901-1.836 7.497-3.825 10.863-6.043 1.224-.612 3.06-.382 5.584.765 1.836.841 3.442.306 4.896-1.683.998-1.378 1.227-2.754.615-3.902zm12.087 5.661c.688-.229 1.3-.383 1.912-.459.383 1.147.689 1.989 1.301 2.983.536.841 1.3 1.071 1.683.229a10.87 10.87 0 0 0 .612-3.672h1.147c.765.076 1.377.382 1.836 1.071 1.147 1.683 1.147 3.672 0 5.967-.229.459-.612.611-1.071.459-2.831-1.224-5.432-2.984-7.727-5.202-.535-.687-.458-1.07.307-1.376zm-4.437 40.545c0-.229.153-.229.765-.383 1.071-.229 1.607-1.07.536-1.683-4.437-2.602-10.863-3.061-19.202-1.913-.994.153-1.377 1.53.306 1.607h4.743l-3.442 6.578c-.153.307-.459.459-.842.536l-7.038.382c-.535 0-.918-.382-1.147-1.07l-2.907-8.951 22.797-8.567 12.087 9.104c-.306 4.284-1.224 8.186-2.677 11.704l-2.295-.994c-.23-.077-.383-.459-.459-.995l-1.225-5.355zm-43.988-85.527a6.883 6.883 0 0 1 2.601-.535c.765.076 1.301.306 1.454.765.153.459 0 .995-.536 1.607-.535.612-1.3 1.071-2.218 1.453a6.866 6.866 0 0 1-2.601.536c-.765-.077-1.3-.306-1.454-.765-.153-.459 0-.994.536-1.606a6.201 6.201 0 0 1 2.218-1.455zm-56.38 15.606c1.454-13.694 5.508-27.617 12.164-41.846-3.442 13.847-5.967 27.234-7.344 40.239-.46 4.284-5.126 4.896-4.82 1.607zm26.01 35.572c1.683-2.218 3.748-3.978 6.196-5.355.382-.229.765-.229.995 0 1.147 1.147 2.218 2.295 3.06 3.596l-.765 3.06c-.612-1.147-1.454-2.219-2.448-3.213-.382-.459-.841-.459-1.453-.153-.995.612-1.913 1.377-2.831 2.295 1.454-.765 2.295-.765 2.677-.153 1.147 2.065 1.989 4.36 2.601 6.809l-2.677 10.404-2.219-.918c-.382-.229-.688-.535-.765-.994-1.3-4.743-2.065-9.486-2.524-14.229-.076-.46 0-.843.153-1.149zm54.391-9.256c.688.382.536.841-.382 1.454a98.66 98.66 0 0 1-8.951 4.59c-.612.306-1.147.306-1.53.153-3.366-1.989-6.579-4.208-9.715-6.655-.459-.383-.536-.842-.229-1.377.612-1.147 1.224-2.219 2.065-3.213.459-.612 1.224-.765 2.295-.535 2.218.535 4.36 1.147 6.426 1.759.459 1.989 1.147 3.901 1.989 5.738.459.918 1.224.918 1.759.076.765-1.224 1.301-2.524 1.53-4.054 1.607.687 3.214 1.376 4.743 2.064zm100.751 14.918c0-4.438-4.896-6.12-5.814-6.35.918-.229 4.896-1.759 4.896-6.12v-16.677c0-5.049-4.208-9.18-9.18-9.18h-20.196v64.107h21.038c9.41 0 9.18-9.639 9.18-9.639V369.35h.076zm-21.267-30.524h11.475v20.349h-11.475v-20.349zm12.163 48.654h-12.24v-20.579h12.24v20.579zm17.902 7.574h8.797v-64.107h-8.797v64.107zm39.091-64.108h-12.317c-5.049 0-9.18 4.131-9.18 9.18v45.67c0 5.049 4.208 9.18 9.18 9.18h12.317c4.972 0 9.18-4.131 9.18-9.18V363h-15.3v7.88h7.039v16.677h-13.158v-48.73h12.24v14.994h9.18v-13.617c.075-5.05-4.132-9.258-9.181-9.258zm44.752 50.72l-8.262-50.72h-9.181l11.858 64.107h11.321l11.398-64.107h-9.18l-7.954 50.72zm25.934 13.388h8.798v-64.107h-8.798v64.107zm41.692-64.108l-12.01 30.754h-2.906v-30.753h-9.181v64.107h9.181V369.12h10.557l3.06 25.934h8.798l-2.83-23.639c-.688-6.503-2.754-9.333-7.574-9.639l12.164-30.83h-9.259zm17.978 64.108h8.798v-64.107h-8.798v64.107zm39.933-64.108h-5.737c-4.131 0-6.196 1.607-7.497 4.82v-4.82h-9.256v64.107h9.256v-56.151h12.699v56.151h9.639v-54.851c.152-5.048-4.055-9.256-9.104-9.256zm48.73 22.874v-13.617c0-5.049-4.207-9.18-9.18-9.18h-12.316c-4.973 0-9.257 4.131-9.257 9.18v45.67c0 5.05 4.208 9.181 9.257 9.181h12.316c5.049 0 9.18-4.131 9.18-9.181V363h-15.376v7.88h7.038v16.677h-13.158v-48.73h12.316v14.994h9.18z"/></svg>